<?xml version="1.0" encoding="UTF-8"?>
<svg version="1.1" xmlns="http://www.w3.org/2000/svg" width="284" height="252">
<path d="M0 0 C0.97694824 0.27287842 0.97694824 0.27287842 1.97363281 0.55126953 C21.92246351 6.1684667 39.0863706 16.73142378 54 31 C54.66257813 31.59941406 55.32515625 32.19882812 56.0078125 32.81640625 C78.25287608 53.66552454 90.65506074 84.37371263 92.12231445 114.51245117 C92.49212855 126.0928836 91.97306019 136.75511911 89 148 C88.83371094 148.66418945 88.66742188 149.32837891 88.49609375 150.01269531 C83.89280875 168.24681867 75.28751836 192.14165443 59 203 C58.54625 203.78375 58.0925 204.5675 57.625 205.375 C55.77804367 208.35854483 53.78498203 209.89428188 51 212 C50.40703125 212.60199219 49.8140625 213.20398438 49.203125 213.82421875 C27.40304148 235.35373386 -5.04414465 245.2765933 -35.125 245.4375 C-45.6543268 245.33503596 -55.7543182 244.43449778 -66 242 C-66.69319336 241.83902832 -67.38638672 241.67805664 -68.10058594 241.51220703 C-83.89255423 237.70854229 -100.84896582 230.65075892 -114 221 C-114.33 220.01 -114.66 219.02 -115 218 C-116.78513689 216.5829027 -118.62901835 215.23915516 -120.5 213.9375 C-144.40921514 196.57312704 -158.04658346 166.41520707 -163 138 C-163.87860718 132.09212411 -164.19212742 126.34494822 -164.1875 120.375 C-164.1884668 119.06873657 -164.1884668 119.06873657 -164.18945312 117.73608398 C-164.13739123 111.30466564 -163.54706841 105.1891479 -162.4375 98.84765625 C-162.01541726 96.10034981 -161.665157 93.76245476 -162 91 C-163.45155314 89.23660915 -163.45155314 89.23660915 -165.5 87.8125 C-175.84118453 79.33492117 -184.41783641 66.65721511 -186.4140625 53.2109375 C-187.26285329 41.7994169 -187.23646923 31.26222007 -185 20 C-184.34 20 -183.68 20 -183 20 C-182.67128906 20.87140625 -182.34257812 21.7428125 -182.00390625 22.640625 C-175.301186 39.42467246 -164.68850567 50.77382517 -150 61 C-147.36833107 57.790207 -144.91796629 54.49973144 -142.55078125 51.09057617 C-124.58622795 25.29486606 -100.16154423 8.49398439 -70 0 C-69.34499512 -0.19609863 -68.68999023 -0.39219727 -68.01513672 -0.59423828 C-46.7045429 -6.80115808 -21.20476114 -6.33436286 0 0 Z " fill="#EFBF97" transform="translate(188,4)"/>
<path d="M0 0 C0.66 0 1.32 0 2 0 C2.32871094 0.87140625 2.65742187 1.7428125 2.99609375 2.640625 C9.17707867 18.11821326 18.86709592 29.29411598 32.05859375 39.30078125 C32.69925781 39.86152344 33.33992188 40.42226562 34 41 C34 41.66 34 42.32 34 43 C35.01900391 43.33837891 35.01900391 43.33837891 36.05859375 43.68359375 C39.76304576 45.34149591 42.82069156 47.6601801 46.0625 50.0625 C66.27306648 64.65650892 88.42194588 76.70567928 110.19433594 88.77001953 C167.18312068 120.35264039 167.18312068 120.35264039 176.22143555 148.54174805 C177.68995588 155.06466762 177.413668 161.60909382 177.25 168.25 C177.22987725 169.68877685 177.21163681 171.12758129 177.1953125 172.56640625 C177.1518357 176.04485742 177.08313871 179.5222436 177 183 C174.62404928 179.92728355 172.98695253 176.97719693 171.375 173.4375 C161.65935116 153.81569941 144.25045101 142.68438294 126 132 C124.74485596 131.25580811 124.74485596 131.25580811 123.46435547 130.49658203 C112.69206348 124.11844753 101.69344161 118.22187896 90.5625 112.5 C89.94396149 112.18198425 89.32542297 111.86396851 88.68814087 111.53631592 C88.07151581 111.21930725 87.45489075 110.90229858 86.81958008 110.57568359 C12.32419709 72.27649917 12.32419709 72.27649917 -0.125 38.9921875 C-3.74714966 26.60572929 -2.47466557 12.46170878 0 0 Z " fill="#314379" transform="translate(3,24)"/>
<path d="M0 0 C0.66 0 1.32 0 2 0 C3.35856809 4.07570427 3.18422668 7.85659715 3.1875 12.125 C3.19974609 12.94226563 3.21199219 13.75953125 3.22460938 14.6015625 C3.27631533 36.38700369 -8.41902614 53.01109359 -23 68 C-23.67546875 68.70382813 -24.3509375 69.40765625 -25.046875 70.1328125 C-29.15398146 74.33411864 -33.55813553 78.15947097 -38 82 C-49.6863134 92.11679234 -60.83187974 102.57795502 -65 118 C-65.66 118 -66.32 118 -67 118 C-70.09605409 104.16514129 -69.87941635 87.08638875 -62.66796875 74.71484375 C-57.8711 67.8292119 -51.06726483 62.70726448 -44.66455078 57.38867188 C-26.47667856 42.21521673 -10.84971053 26.76858104 -2.3125 4.359375 C-1 1 -1 1 0 0 Z " fill="#324378" transform="translate(254,76)"/>
</svg>
